<svg width="4" height="15" viewBox="0 0 4 15" fill="none" xmlns="http://www.w3.org/2000/svg">
<path d="M2 5.78125C0.90625 5.78125 0.03125 6.68359 0.03125 7.75C0.03125 8.84375 0.90625 9.71875 2 9.71875C3.06641 9.71875 3.96875 8.84375 3.96875 7.75C3.96875 6.68359 3.06641 5.78125 2 5.78125ZM0.03125 2.9375C0.03125 4.03125 0.90625 4.90625 2 4.90625C3.06641 4.90625 3.96875 4.03125 3.96875 2.9375C3.96875 1.87109 3.06641 0.96875 2 0.96875C0.90625 0.96875 0.03125 1.87109 0.03125 2.9375ZM0.03125 12.5625C0.03125 13.6562 0.90625 14.5312 2 14.5312C3.06641 14.5312 3.96875 13.6562 3.96875 12.5625C3.96875 11.4961 3.06641 10.5938 2 10.5938C0.90625 10.5938 0.03125 11.4961 0.03125 12.5625Z" fill="#F17228"/>
</svg>
